<svg xmlns="http://www.w3.org/2000/svg" width="24" height="24" viewBox="0 0 24 24">
    <g data-name="그룹 600">
        <path data-name="사각형 1060" style="fill:none" d="M0 0h24v24H0z"/>
        <g data-name="그룹 599">
            <path data-name="패스 185" d="m9.337 8.752 5.911 5.911L4.9 19.096 9.333 8.752M9 7 3 21l14-6-8-8z"/>
            <g data-name="그룹 594">
                <g data-name="그룹 593">
                    <path data-name="패스 186" d="M15.483 4.001a.5.5 0 1 0 .517.482.5.5 0 0 0-.517-.482z"/>
                </g>
            </g>
            <g data-name="그룹 596">
                <g data-name="그룹 595">
                    <path data-name="패스 187" d="M19.483 8.001a.5.5 0 1 0 .517.482.5.5 0 0 0-.517-.482z"/>
                </g>
            </g>
            <g data-name="그룹 598">
                <g data-name="그룹 597">
                    <path data-name="패스 188" d="M14.483 9.001a.5.5 0 1 0 .517.482.5.5 0 0 0-.517-.482z"/>
                </g>
            </g>
            <path data-name="패스 189" d="m16.523 8.524-.707-.707a.633.633 0 0 0 .194-.411 1.664 1.664 0 0 1 1.4-1.4.631.631 0 0 0 .411-.193.617.617 0 0 0 .192-.409 1.655 1.655 0 0 1 1.4-1.4.625.625 0 0 0 .409-.191l.706.707a1.584 1.584 0 0 1-.928.466.668.668 0 0 0-.6.6 1.659 1.659 0 0 1-1.4 1.4.671.671 0 0 0-.6.6 1.6 1.6 0 0 1-.477.938z"/>
            <path data-name="사각형 1079" d="m8.512 8.109.976-.217 2 8.999-.975.217z"/>
            <path data-name="사각형 1080" d="m6.51 13.098.98-.196 1 5-.98.196z"/>
            <path data-name="패스 190" d="M20.4 12a1.713 1.713 0 0 0-2.8 0l-.6-.6a2.539 2.539 0 0 1 4 0z"/>
            <path data-name="패스 191" d="M11 3.601a1.712 1.712 0 0 1 0 2.8l.6.6a2.54 2.54 0 0 0 0-4z"/>
        </g>
    </g>
</svg>
