<svg xmlns="http://www.w3.org/2000/svg" width="24" height="24" viewBox="0 0 24 24">
    <g data-name="그룹 606">
        <path data-name="사각형 1063" style="fill:none" d="M0 0h24v24H0z"/>
        <g data-name="그룹 605">
            <path data-name="사각형 1082" d="M3 20h18v1H3z"/>
            <path data-name="패스 198" d="M19 11v9H5v-9h14m1-1H4v11h16V10z"/>
            <path data-name="패스 199" d="M12 4.854A7.467 7.467 0 0 1 13 7a1 1 0 0 1-2 0 7.47 7.47 0 0 1 1-2.148m0-1.854s-2 2.9-2 4a2 2 0 1 0 4 0c0-1.1-2-4-2-4z"/>
            <path data-name="사각형 1083" d="M11.5 8h1v3h-1z"/>
            <path data-name="패스 200" d="M15.5 16.5a2.679 2.679 0 0 1-2.127-1.171c-.464-.529-.757-.829-1.376-.829s-.91.3-1.372.829a2.514 2.514 0 0 1-4.25 0c-.463-.529-.755-.829-1.372-.829v-1a2.681 2.681 0 0 1 2.125 1.171c.462.53.754.829 1.372.829s.909-.3 1.372-.829a2.516 2.516 0 0 1 4.253 0c.463.53.756.829 1.375.829s.912-.3 1.376-.829A2.68 2.68 0 0 1 19 13.5v1c-.619 0-.912.3-1.375.829A2.681 2.681 0 0 1 15.5 16.5z"/>
        </g>
    </g>
</svg>
