<svg xmlns="http://www.w3.org/2000/svg" width="24" height="24" viewBox="0 0 24 24">
    <g data-name="그룹 604">
        <path data-name="사각형 1062" style="fill:none" d="M0 0h24v24H0z"/>
        <g data-name="그룹 603">
            <path data-name="패스 195" d="M9.568 3.986a2.978 2.978 0 0 1 .854.261 3.313 3.313 0 0 0 3.156 0 3.011 3.011 0 0 1 .854-.261.176.176 0 0 1 .059.007c.171.058.436.485.629.8a4.435 4.435 0 0 0 1.016 1.26 4.235 4.235 0 0 0 1.473.63 2.3 2.3 0 0 1 .91.373 2.651 2.651 0 0 1 .056 1.006 4.8 4.8 0 0 0 .12 1.668 4.5 4.5 0 0 0 .824 1.383 2.388 2.388 0 0 1 .538.89 2.383 2.383 0 0 1-.538.891 4.491 4.491 0 0 0-.824 1.383 4.8 4.8 0 0 0-.12 1.668 2.651 2.651 0 0 1-.056 1.006 2.3 2.3 0 0 1-.91.373 4.252 4.252 0 0 0-1.473.629 4.453 4.453 0 0 0-1.016 1.261c-.194.312-.458.739-.629.8a.176.176 0 0 1-.059.007 3.01 3.01 0 0 1-.854-.261 3.305 3.305 0 0 0-3.156 0 3.01 3.01 0 0 1-.854.261.21.21 0 0 1-.059-.007c-.171-.058-.436-.485-.629-.8a4.453 4.453 0 0 0-1.016-1.261 4.252 4.252 0 0 0-1.473-.629 2.311 2.311 0 0 1-.91-.373 2.651 2.651 0 0 1-.056-1.006 4.8 4.8 0 0 0-.12-1.668 4.491 4.491 0 0 0-.824-1.383 2.383 2.383 0 0 1-.538-.891 2.4 2.4 0 0 1 .538-.891 4.486 4.486 0 0 0 .824-1.382 4.8 4.8 0 0 0 .12-1.668 2.649 2.649 0 0 1 .056-1.006 2.3 2.3 0 0 1 .91-.373 4.235 4.235 0 0 0 1.473-.63 4.435 4.435 0 0 0 1.016-1.26c.194-.312.458-.739.629-.8a.176.176 0 0 1 .059-.007m0-.986a1.091 1.091 0 0 0-.35.055c-.856.291-1.2 1.656-1.909 2.2s-2.066.467-2.59 1.22-.033 2.055-.312 2.95C4.139 10.288 3 11.045 3 12.002s1.139 1.715 1.407 2.578c.279.9-.207 2.205.312 2.95s1.87.672 2.59 1.219 1.052 1.908 1.909 2.2a1.064 1.064 0 0 0 .35.055c.758 0 1.641-.661 2.432-.661s1.674.661 2.432.661a1.089 1.089 0 0 0 .35-.054c.856-.291 1.2-1.657 1.909-2.2s2.066-.467 2.59-1.219.033-2.055.312-2.95C19.861 13.718 21 12.96 21 12.003s-1.139-1.714-1.407-2.577c-.279-.9.207-2.205-.312-2.95s-1.87-.672-2.59-1.219-1.052-1.908-1.909-2.2a1.091 1.091 0 0 0-.35-.055c-.758 0-1.641.662-2.432.662s-1.674-.662-2.432-.662z"/>
            <path data-name="사각형 1081" d="m7.646 15.647 8-8 .707.707-8 8z"/>
            <path data-name="패스 196" d="M9.5 11.5a2 2 0 1 1 2-2 2 2 0 0 1-2 2zm0-3a1 1 0 1 0 1 1 1 1 0 0 0-1-1z"/>
            <path data-name="패스 197" d="M14.5 16.5a2 2 0 1 1 2-2 2 2 0 0 1-2 2zm0-3a1 1 0 1 0 1 1 1 1 0 0 0-1-1z"/>
        </g>
    </g>
</svg>
