<svg xmlns="http://www.w3.org/2000/svg" width="20" height="20" viewBox="0 0 20 20">
    <path data-name="패스 227" d="M463.784 140.081a2.285 2.285 0 0 0 .483-.328 2.4 2.4 0 0 0 .216-3.492 2.356 2.356 0 0 0-1.64-.625 2.981 2.981 0 0 0-2.036.83 6.74 6.74 0 0 0-1.222 3.025 6.739 6.739 0 0 0-1.221-3.025 2.981 2.981 0 0 0-2.036-.83 2.356 2.356 0 0 0-1.64.625 2.4 2.4 0 0 0 .216 3.492 2.286 2.286 0 0 0 .483.328h-5.8v15.555h20v-15.555zm-2.15-2.829a1.785 1.785 0 0 1 1.209-.505 1.162 1.162 0 0 1 .813.3 1.057 1.057 0 0 1 .313.852 1.629 1.629 0 0 1-.529 1.069 7.418 7.418 0 0 1-2.744.89 6.574 6.574 0 0 1 .938-2.606zm-6.119-.205a1.162 1.162 0 0 1 .813-.3 1.787 1.787 0 0 1 1.209.505 6.6 6.6 0 0 1 .937 2.607 7.4 7.4 0 0 1-2.743-.891 1.629 1.629 0 0 1-.529-1.069 1.057 1.057 0 0 1 .313-.852zm-4.819 4.145h8.334v3.889h-8.33zm0 13.333v-8.333h8.334v8.333zm17.778 0h-8.333v-8.333h8.333zm0-9.444h-8.333v-3.889h8.333z" transform="translate(-449.585 -135.636)" style="fill:#d0d6de"/>
</svg>
