<svg xmlns="http://www.w3.org/2000/svg" width="20" height="20" viewBox="0 0 20 20">
    <g data-name="그룹 652">
        <path data-name="사각형 1118" transform="translate(9.445)" style="fill:#d0d6de" d="M0 0h1.111v2.222H0z"/>
        <path data-name="사각형 1119" transform="rotate(-26.565 5.408 -10.036)" style="fill:#d0d6de" d="M0 0h1.111v2.485H0z"/>
        <path data-name="사각형 1120" transform="rotate(-63.435 8.914 -8.843)" style="fill:#d0d6de" d="M0 0h2.485v1.111H0z"/>
        <path data-name="패스 228" d="M410.43 135.69h-8.811l-5.6 5.556 10 10 10-10zm-1.506 5h-5.8l-.973-3.889h7.749zm-.368 1.111-2.532 6.751-2.531-6.751zm-6.576-1.111h-3.819l3.059-3.038zm.326 1.111 2.493 6.648-6.648-6.648zm7.437 0h4.157l-6.647 6.648zm.326-1.111.76-3.038 3.059 3.038z" style="fill:#d0d6de" transform="translate(-396.024 -131.246)"/>
    </g>
</svg>
