<svg xmlns="http://www.w3.org/2000/svg" width="20" height="20" viewBox="0 0 20 20">
    <g data-name="그룹 649">
        <path data-name="패스 220" d="M339.5 207.965c0-1.063-1.266-1.9-1.564-2.864-.309-.994.231-2.45-.345-3.277s-2.078-.747-2.879-1.355-1.169-2.12-2.121-2.443a1.211 1.211 0 0 0-.388-.061c-.843 0-1.824.735-2.7.735s-1.86-.735-2.7-.735a1.211 1.211 0 0 0-.388.061c-.952.323-1.329 1.84-2.121 2.443s-2.3.518-2.878 1.354-.037 2.284-.346 3.278c-.3.96-1.564 1.8-1.564 2.864s1.266 1.9 1.564 2.865c.309.994-.231 2.449.345 3.277s2.078.747 2.879 1.355 1.169 2.12 2.121 2.442a1.184 1.184 0 0 0 .388.061c.843 0 1.824-.735 2.7-.735s1.86.735 2.7.735a1.184 1.184 0 0 0 .388-.061c.952-.322 1.329-1.84 2.121-2.442s2.3-.519 2.878-1.355.037-2.283.346-3.277c.298-.96 1.564-1.801 1.564-2.865zm-2.561 2.526a5.339 5.339 0 0 0-.133 1.854 2.959 2.959 0 0 1-.063 1.118 2.566 2.566 0 0 1-1.011.414 4.73 4.73 0 0 0-1.637.7 4.968 4.968 0 0 0-1.129 1.4c-.214.346-.508.821-.7.886a.2.2 0 0 1-.064.007 3.347 3.347 0 0 1-.95-.289 3.668 3.668 0 0 0-3.506 0 3.347 3.347 0 0 1-.95.289.24.24 0 0 1-.064-.007c-.191-.065-.485-.54-.7-.886a4.954 4.954 0 0 0-1.13-1.4 4.714 4.714 0 0 0-1.637-.7 2.567 2.567 0 0 1-1.01-.414 2.961 2.961 0 0 1-.063-1.118 5.339 5.339 0 0 0-.133-1.854 4.977 4.977 0 0 0-.915-1.536 1.118 1.118 0 0 1 0-1.98 4.965 4.965 0 0 0 .915-1.536 5.333 5.333 0 0 0 .133-1.853 2.959 2.959 0 0 1 .063-1.118 2.566 2.566 0 0 1 1.011-.414 4.714 4.714 0 0 0 1.637-.7 4.964 4.964 0 0 0 1.129-1.4c.214-.347.508-.822.7-.886a.2.2 0 0 1 .064-.007 3.347 3.347 0 0 1 .95.289 3.675 3.675 0 0 0 3.506 0 3.347 3.347 0 0 1 .95-.289.2.2 0 0 1 .064.007c.191.065.485.539.7.886a4.95 4.95 0 0 0 1.13 1.4 4.7 4.7 0 0 0 1.637.7 2.567 2.567 0 0 1 1.01.414 2.959 2.959 0 0 1 .063 1.118 5.333 5.333 0 0 0 .133 1.853 4.965 4.965 0 0 0 .915 1.536 1.118 1.118 0 0 1 0 1.98 4.977 4.977 0 0 0-.915 1.536z" style="fill:#d0d6de" transform="translate(-319.5 -197.965)"/>
        <path data-name="사각형 1115" transform="rotate(-45 19.544 .794)" style="fill:#d0d6de" d="M0 0h12.571v1.111H0z"/>
        <path data-name="패스 221" d="M326.722 207.41a2.223 2.223 0 1 0-2.222-2.222 2.224 2.224 0 0 0 2.222 2.222zm0-3.334a1.111 1.111 0 1 1-1.111 1.112 1.113 1.113 0 0 1 1.111-1.112z" style="fill:#d0d6de" transform="translate(-319.5 -197.965)"/>
        <path data-name="패스 222" d="M332.278 208.521a2.222 2.222 0 1 0 2.222 2.222 2.224 2.224 0 0 0-2.222-2.222zm0 3.333a1.111 1.111 0 1 1 1.111-1.111 1.112 1.112 0 0 1-1.111 1.111z" style="fill:#d0d6de" transform="translate(-319.5 -197.965)"/>
    </g>
</svg>
