<svg xmlns="http://www.w3.org/2000/svg" width="20" height="20" viewBox="0 0 20 20">
    <g data-name="그룹 646">
        <path data-name="패스 218" d="m511.391 201.867 1.355 4.065a.556.556 0 0 0 .527.379h.044a.554.554 0 0 0 .5-.462l.663-3.98h1.011a.556.556 0 1 0 0-1.111h-.825l.262-1.576a.556.556 0 0 0-1.1-.182l-.293 1.758h-1.351l-.614-1.843a.579.579 0 0 0-1.054 0l-.614 1.843h-1.351l-.285-1.758a.555.555 0 1 0-1.1.182l.262 1.576h-.825a.556.556 0 1 0 0 1.111h1.01l.664 3.98a.556.556 0 0 0 1.075.085l1.355-4.065zm1.967 0-.265 1.591-.53-1.591zm-4.349 1.591-.265-1.591h.8z" style="fill:#d0d6de" transform="translate(-502.162 -193.534)"/>
        <path data-name="패스 219" d="M518.359 197.369a8.886 8.886 0 1 0-12.352 12.369 8.878 8.878 0 1 0 12.352-12.369zm-15.086 5.054a7.778 7.778 0 1 1 7.778 7.777 7.787 7.787 0 0 1-7.778-7.777zm10 10a7.6 7.6 0 0 1-4.381-1.387 8.857 8.857 0 0 0 10.755-10.836 7.772 7.772 0 0 1-6.374 12.228z" style="fill:#d0d6de" transform="translate(-502.162 -193.534)"/>
    </g>
</svg>
