<svg xmlns="http://www.w3.org/2000/svg" width="24" height="24" viewBox="0 0 24 24">
    <g data-name="그룹 629">
        <path data-name="사각형 1065" style="fill:none" d="M0 0h24v24H0z"/>
        <g data-name="그룹 630">
            <path data-name="패스 209" d="M20 8v12H4V8h16m1-1H3v14h18V7z"/>
            <path data-name="사각형 1105" d="M11.5 8h1v12h-1z"/>
            <path data-name="사각형 1106" d="M4 11.5h16v1H4z"/>
            <path data-name="패스 210" d="M16.408 3.563A2.121 2.121 0 0 0 14.932 3a2.685 2.685 0 0 0-1.833.748 6.063 6.063 0 0 0-1.1 2.722 6.063 6.063 0 0 0-1.1-2.722A2.685 2.685 0 0 0 9.066 3a2.121 2.121 0 0 0-1.476.563 2.156 2.156 0 0 0 .195 3.143c.737.7 2.947 1.084 3.958 1.228L11.735 8s.1-.011.263-.032c.162.021.263.032.263.032l-.008-.066c1.011-.144 3.221-.527 3.958-1.228a2.156 2.156 0 0 0 .197-3.143zM8.531 5.999a1.465 1.465 0 0 1-.476-.962.954.954 0 0 1 .281-.767A1.05 1.05 0 0 1 9.068 4a1.606 1.606 0 0 1 1.088.455A5.924 5.924 0 0 1 11 6.801a6.665 6.665 0 0 1-2.469-.802zm6.938 0a6.68 6.68 0 0 1-2.47.8 5.919 5.919 0 0 1 .845-2.345 1.606 1.606 0 0 1 1.088-.455 1.05 1.05 0 0 1 .732.27.954.954 0 0 1 .281.767 1.465 1.465 0 0 1-.476.963z"/>
        </g>
    </g>
</svg>
